<svg width="139" height="20" viewBox="0 0 139 20" fill="none" xmlns="http://www.w3.org/2000/svg">
<path d="M52.478 6.76489H56.4433C56.3215 5.68663 56.0259 4.73011 55.5563 3.89533C55.0867 3.06055 54.4911 2.36055 53.7693 1.79533C53.0476 1.23011 52.2302 0.799677 51.3172 0.504025C50.4041 0.208373 49.4346 0.0605469 48.4085 0.0605469C46.9824 0.0605469 45.6998 0.312721 44.5606 0.817069C43.4215 1.32142 42.4606 2.01707 41.678 2.90403C40.8954 3.79098 40.2954 4.83011 39.878 6.02142C39.4606 7.21272 39.252 8.50403 39.252 9.89533C39.252 11.2519 39.4606 12.5171 39.878 13.691C40.2954 14.8649 40.8954 15.8866 41.678 16.7562C42.4606 17.6258 43.4215 18.3084 44.5606 18.804C45.6998 19.2997 46.9824 19.5475 48.4085 19.5475C49.5563 19.5475 50.6085 19.3736 51.565 19.0258C52.5215 18.6779 53.3563 18.1736 54.0693 17.5127C54.7824 16.8519 55.3563 16.0519 55.7911 15.1127C56.2259 14.1736 56.4954 13.1214 56.5998 11.9562H52.6346C52.478 13.2084 52.0476 14.2171 51.3433 14.9823C50.6389 15.7475 49.6606 16.1301 48.4085 16.1301C47.4867 16.1301 46.7041 15.9519 46.0606 15.5953C45.4172 15.2388 44.8954 14.7649 44.4954 14.1736C44.0954 13.5823 43.8041 12.9171 43.6215 12.1779C43.4389 11.4388 43.3476 10.6779 43.3476 9.89533C43.3476 9.07794 43.4389 8.28663 43.6215 7.52142C43.8041 6.7562 44.0954 6.07359 44.4954 5.47359C44.8954 4.87359 45.4172 4.39533 46.0606 4.03881C46.7041 3.68229 47.4867 3.50403 48.4085 3.50403C48.9128 3.50403 49.3954 3.58663 49.8563 3.75185C50.3172 3.91707 50.7302 4.1475 51.0954 4.44316C51.4606 4.73881 51.765 5.08229 52.0085 5.47359C52.252 5.86489 52.4085 6.29533 52.478 6.76489Z" fill="white"/>
<path d="M59 5.64256V19.1295H62.7043V13.0513C62.7043 12.4426 62.7652 11.8773 62.887 11.3556C63.0087 10.8339 63.213 10.3773 63.5 9.98604C63.787 9.59473 64.1652 9.28604 64.6348 9.05995C65.1043 8.83387 65.6783 8.72082 66.3565 8.72082C66.5826 8.72082 66.8174 8.73387 67.0609 8.75995C67.3043 8.78604 67.513 8.81647 67.687 8.85126V5.40778C67.3913 5.32082 67.1217 5.27734 66.8783 5.27734C66.4087 5.27734 65.9565 5.34691 65.5217 5.48604C65.087 5.62517 64.6783 5.82082 64.2957 6.073C63.913 6.32517 63.5739 6.62952 63.2783 6.98604C62.9826 7.34256 62.7478 7.72952 62.5739 8.14691H62.5217V5.64256H59Z" fill="white"/>
<path d="M78.2265 10.9382H72.2004C72.2178 10.6773 72.2744 10.3817 72.37 10.0513C72.4657 9.72082 72.6309 9.40778 72.8657 9.11213C73.1004 8.81647 73.4135 8.56865 73.8048 8.36865C74.1961 8.16865 74.6874 8.06865 75.2787 8.06865C76.183 8.06865 76.857 8.31213 77.3004 8.79908C77.7439 9.28604 78.0526 9.99908 78.2265 10.9382ZM72.2004 13.286H81.9309C82.0004 12.2426 81.9135 11.2426 81.67 10.286C81.4265 9.32952 81.0309 8.47734 80.483 7.72952C79.9352 6.98169 79.2352 6.38604 78.383 5.94256C77.5309 5.49908 76.5309 5.27734 75.383 5.27734C74.357 5.27734 73.4222 5.45995 72.5787 5.82517C71.7352 6.19039 71.0091 6.69039 70.4004 7.32517C69.7917 7.95995 69.3222 8.71213 68.9917 9.58169C68.6613 10.4513 68.4961 11.3904 68.4961 12.3991C68.4961 13.4426 68.657 14.3991 68.9787 15.2686C69.3004 16.1382 69.757 16.886 70.3483 17.5121C70.9396 18.1382 71.6613 18.6208 72.5135 18.96C73.3657 19.2991 74.3222 19.4686 75.383 19.4686C76.9135 19.4686 78.2178 19.1208 79.2961 18.4252C80.3744 17.7295 81.1744 16.573 81.6961 14.9556H78.4352C78.3135 15.373 77.983 15.7686 77.4439 16.1426C76.9048 16.5165 76.2613 16.7034 75.5135 16.7034C74.47 16.7034 73.67 16.4339 73.1135 15.8947C72.557 15.3556 72.2526 14.486 72.2004 13.286Z" fill="white"/>
<path d="M83.9643 9.79039C84.0164 8.92082 84.2338 8.19908 84.6164 7.62517C84.999 7.05126 85.486 6.59039 86.0773 6.24256C86.6686 5.89474 87.3338 5.64691 88.073 5.49908C88.8121 5.35126 89.5556 5.27734 90.3034 5.27734C90.9817 5.27734 91.6686 5.32517 92.3643 5.42082C93.0599 5.51647 93.6947 5.70343 94.2686 5.98169C94.8425 6.25995 95.3121 6.64691 95.6773 7.14256C96.0425 7.63821 96.2251 8.29474 96.2251 9.11213V16.1295C96.2251 16.7382 96.2599 17.3208 96.3295 17.8773C96.3991 18.4339 96.5208 18.8513 96.6947 19.1295H92.9382C92.8686 18.9208 92.8121 18.7078 92.7686 18.4904C92.7251 18.273 92.6947 18.0513 92.6773 17.8252C92.086 18.4339 91.3904 18.86 90.5904 19.1034C89.7904 19.3469 88.973 19.4686 88.1382 19.4686C87.4947 19.4686 86.8947 19.3904 86.3382 19.2339C85.7817 19.0773 85.2947 18.8339 84.8773 18.5034C84.4599 18.173 84.1338 17.7556 83.8991 17.2513C83.6643 16.7469 83.5469 16.1469 83.5469 15.4513C83.5469 14.686 83.6817 14.0556 83.9512 13.56C84.2208 13.0643 84.5686 12.6686 84.9947 12.373C85.4208 12.0773 85.9077 11.8556 86.4556 11.7078C87.0034 11.56 87.5556 11.4426 88.1121 11.3556C88.6686 11.2686 89.2164 11.1991 89.7556 11.1469C90.2947 11.0947 90.773 11.0165 91.1904 10.9121C91.6077 10.8078 91.9382 10.6556 92.1817 10.4556C92.4251 10.2556 92.5382 9.9643 92.5208 9.58169C92.5208 9.18169 92.4556 8.8643 92.3251 8.62952C92.1947 8.39473 92.0208 8.21213 91.8034 8.08169C91.586 7.95126 91.3338 7.8643 91.0469 7.82082C90.7599 7.77734 90.4512 7.75561 90.1208 7.75561C89.3904 7.75561 88.8164 7.91213 88.3991 8.22517C87.9817 8.53821 87.7382 9.05995 87.6686 9.79039H83.9643ZM92.5208 12.5295C92.3643 12.6686 92.1686 12.7773 91.9338 12.8556C91.699 12.9339 91.4469 12.9991 91.1773 13.0513C90.9077 13.1034 90.6251 13.1469 90.3295 13.1817C90.0338 13.2165 89.7382 13.26 89.4425 13.3121C89.1643 13.3643 88.8904 13.4339 88.6208 13.5208C88.3512 13.6078 88.1164 13.7252 87.9164 13.873C87.7164 14.0208 87.5556 14.2078 87.4338 14.4339C87.3121 14.66 87.2512 14.9469 87.2512 15.2947C87.2512 15.6252 87.3121 15.9034 87.4338 16.1295C87.5556 16.3556 87.7208 16.5339 87.9295 16.6643C88.1382 16.7947 88.3817 16.886 88.6599 16.9382C88.9382 16.9904 89.2251 17.0165 89.5208 17.0165C90.2512 17.0165 90.8164 16.8947 91.2164 16.6513C91.6164 16.4078 91.9121 16.1165 92.1034 15.7773C92.2947 15.4382 92.4121 15.0947 92.4556 14.7469C92.4991 14.3991 92.5208 14.1208 92.5208 13.9121V12.5295Z" fill="white"/>
<path d="M102.435 5.64309V1.59961H100.218V5.64309H97.9219V7.59961H100.218V16.1822C100.218 16.8083 100.278 17.3127 100.4 17.6953C100.522 18.0779 100.709 18.3735 100.961 18.5822C101.213 18.7909 101.544 18.9344 101.952 19.0127C102.361 19.0909 102.852 19.13 103.426 19.13H105.122V17.1735H104.104C103.757 17.1735 103.474 17.1605 103.257 17.1344C103.039 17.1083 102.87 17.0518 102.748 16.9648C102.626 16.8779 102.544 16.7561 102.5 16.5996C102.457 16.4431 102.435 16.2344 102.435 15.9735V7.59961H105.122V5.64309H102.435Z" fill="white"/>
<path d="M109.921 3.21695V0.503906H107.703V3.21695H109.921ZM107.703 5.64304V19.13H109.921V5.64304H107.703Z" fill="white"/>
<path d="M119.443 19.1295L124.374 5.64258H122.052L118.374 16.8861H118.321L114.539 5.64258H112.061L117.069 19.1295H119.443Z" fill="white"/>
<path d="M135.773 11.0953H128.026C128.06 10.5736 128.173 10.0823 128.365 9.62138C128.556 9.16051 128.817 8.75617 129.147 8.40834C129.478 8.06051 129.873 7.7866 130.334 7.5866C130.795 7.3866 131.313 7.2866 131.886 7.2866C132.443 7.2866 132.952 7.3866 133.413 7.5866C133.873 7.7866 134.273 8.05617 134.613 8.3953C134.952 8.73443 135.221 9.13877 135.421 9.60834C135.621 10.0779 135.739 10.5736 135.773 11.0953ZM137.913 14.8518H135.721C135.53 15.7388 135.134 16.3996 134.534 16.8344C133.934 17.2692 133.165 17.4866 132.226 17.4866C131.495 17.4866 130.86 17.3649 130.321 17.1214C129.782 16.8779 129.339 16.5518 128.991 16.1431C128.643 15.7344 128.391 15.2649 128.234 14.7344C128.078 14.204 128.008 13.6431 128.026 13.0518H138.121C138.156 12.2344 138.082 11.3736 137.899 10.4692C137.717 9.56486 137.386 8.73008 136.908 7.96486C136.43 7.19964 135.795 6.56921 135.004 6.07356C134.213 5.5779 133.217 5.33008 132.017 5.33008C131.095 5.33008 130.247 5.50399 129.473 5.85182C128.699 6.19964 128.03 6.6866 127.465 7.31269C126.899 7.93877 126.46 8.6779 126.147 9.53008C125.834 10.3823 125.678 11.3214 125.678 12.3475C125.713 13.3736 125.865 14.3214 126.134 15.1909C126.404 16.0605 126.808 16.8083 127.347 17.4344C127.886 18.0605 128.552 18.5475 129.343 18.8953C130.134 19.2431 131.069 19.417 132.147 19.417C133.678 19.417 134.947 19.0344 135.956 18.2692C136.965 17.504 137.617 16.3649 137.913 14.8518Z" fill="white"/>
<path opacity="0.7" fill-rule="evenodd" clip-rule="evenodd" d="M23.9599 0H31.3044L22.8582 9.99767L31.3044 20H23.9599L15.5137 9.99767L23.9599 0Z" fill="white"/>
<path fill-rule="evenodd" clip-rule="evenodd" d="M3.01237 20C1.34866 20 0 18.6091 0 16.8932V3.1068C0 1.39094 1.34866 0 3.01237 0H9.69605C15.051 0 19.3921 4.47715 19.3921 10C19.3921 15.5228 15.051 20 9.69605 20H3.01237Z" fill="white"/>
</svg>
